<?xml version="1.0" standalone="no"?>
<!DOCTYPE svg PUBLIC "-//W3C//DTD SVG 20010904//EN"
 "http://www.w3.org/TR/2001/REC-SVG-20010904/DTD/svg10.dtd">
<svg version="1.0" xmlns="http://www.w3.org/2000/svg"
 width="200.000000pt" height="200.000000pt" viewBox="0 0 200.000000 200.000000"
 preserveAspectRatio="xMidYMid meet">

<g transform="translate(0.000000,200.000000) scale(0.100000,-0.100000)"
fill="#000000" stroke="none">
<path d="M856 1605 c-149 -41 -300 -165 -364 -299 -100 -206 -74 -435 68 -614
l40 -52 107 0 106 0 -60 39 c-186 120 -255 365 -159 567 110 233 384 328 613
213 63 -32 148 -109 182 -164 128 -212 66 -480 -144 -621 l-50 -34 102 0 101
0 40 45 c89 101 132 223 132 375 0 78 -5 109 -29 177 -63 182 -212 320 -398
368 -70 18 -220 18 -287 0z"/>
<path d="M890 1466 c-95 -27 -150 -65 -150 -106 0 -31 28 -131 40 -144 14 -14
93 74 133 149 20 39 45 80 53 93 16 21 15 22 -7 21 -13 0 -44 -6 -69 -13z"/>
<path d="M1015 1449 c-19 -17 -54 -67 -76 -110 -27 -51 -59 -95 -90 -123 l-50
-45 18 -29 18 -29 110 64 c121 70 238 119 330 138 l60 12 -35 33 c-46 43 -94
73 -150 93 -86 30 -96 30 -135 -4z"/>
<path d="M668 1318 c-27 -35 -61 -100 -72 -134 -5 -18 -2 -22 23 -27 23 -5
131 17 131 26 0 1 -9 26 -20 55 -11 29 -20 66 -20 82 0 39 -12 38 -42 -2z"/>
<path d="M1265 1274 c-91 -22 -204 -70 -307 -131 -51 -30 -95 -56 -97 -59 -2
-2 8 -21 22 -43 l26 -39 38 19 c48 25 128 25 235 0 156 -36 229 -45 239 -30
23 36 4 173 -35 249 -26 52 -36 55 -121 34z"/>
<path d="M721 1133 c-21 -9 -56 -13 -88 -11 l-53 3 0 -68 c0 -38 5 -87 11
-110 l10 -42 100 98 c99 97 99 97 83 122 -19 29 -17 28 -63 8z"/>
<path d="M784 1032 c-56 -41 -154 -150 -154 -171 0 -26 51 -92 101 -133 70
-56 69 -57 62 22 -7 81 11 141 59 196 l30 34 -30 40 -29 40 -39 -28z"/>
<path d="M963 988 c-13 -6 -23 -15 -23 -21 0 -15 93 -128 151 -182 75 -70 123
-99 146 -86 57 30 191 216 171 236 -3 3 -41 12 -84 19 -43 8 -110 21 -147 30
-77 18 -181 20 -214 4z"/>
<path d="M860 893 c-25 -39 -30 -57 -30 -108 0 -72 15 -121 40 -135 26 -14
238 -11 279 4 l35 12 -45 31 c-47 33 -157 143 -203 206 -16 20 -32 37 -37 37
-5 0 -23 -21 -39 -47z"/>
<path d="M154 500 c0 -42 3 -50 18 -50 10 0 18 7 18 18 1 16 1 16 11 0 5 -10
19 -18 30 -18 17 0 18 3 9 21 -8 15 -8 24 -1 33 21 25 2 46 -43 46 l-42 0 0
-50z m56 20 c0 -5 -4 -10 -10 -10 -5 0 -10 5 -10 10 0 6 5 10 10 10 6 0 10 -4
10 -10z"/>
<path d="M264 500 c0 -44 2 -50 21 -50 19 0 21 6 21 50 0 44 -2 50 -21 50 -19
0 -21 -6 -21 -50z"/>
<path d="M326 534 c-19 -48 1 -84 46 -84 34 0 39 27 6 32 -13 2 -23 10 -23 18
0 8 10 16 23 18 12 2 22 10 22 18 0 20 -66 19 -74 -2z"/>
<path d="M414 500 c1 -45 3 -50 24 -50 15 0 22 6 22 20 0 11 6 20 14 20 9 0
12 -7 9 -20 -4 -16 0 -20 19 -20 22 0 24 4 24 50 0 46 -2 50 -24 50 -19 0 -23
-4 -19 -20 3 -13 0 -20 -9 -20 -8 0 -14 9 -14 20 0 14 -7 20 -23 20 -22 0 -23
-4 -23 -50z"/>
<path d="M584 500 c0 -44 2 -50 21 -50 19 0 21 6 21 50 0 44 -2 50 -21 50 -19
0 -21 -6 -21 -50z"/>
<path d="M644 500 c0 -42 3 -50 19 -50 14 0 17 5 13 23 l-6 22 11 -22 c7 -13
21 -23 34 -23 19 0 21 5 21 50 0 35 -4 50 -13 50 -7 0 -13 -10 -14 -22 l0 -23
-11 23 c-6 13 -20 22 -33 22 -19 0 -21 -5 -21 -50z"/>
<path d="M790 534 c0 -9 5 -12 12 -8 8 5 9 -4 4 -34 -6 -40 -5 -42 19 -42 24
0 25 2 19 35 -5 28 -3 35 10 35 9 0 16 7 16 15 0 11 -11 15 -40 15 -30 0 -40
-4 -40 -16z"/>
<path d="M880 500 c0 -47 2 -50 26 -50 21 0 24 4 19 20 -4 14 -2 20 8 20 10 0
13 -7 10 -20 -4 -16 0 -20 19 -20 22 0 24 4 24 50 0 46 -2 50 -24 50 -19 0
-23 -4 -19 -20 3 -13 0 -20 -10 -20 -10 0 -12 6 -8 20 5 16 2 20 -19 20 -24 0
-26 -3 -26 -50z"/>
<path d="M1010 500 l0 -50 35 0 c25 0 35 4 35 16 0 9 -6 14 -13 11 -9 -3 -14
4 -14 23 0 19 5 26 14 23 7 -3 13 2 13 11 0 12 -10 16 -35 16 l-35 0 0 -50z"/>
<path d="M1130 500 c0 -43 3 -50 20 -50 14 0 20 7 21 23 0 12 3 16 6 9 4 -10
8 -10 19 -1 11 9 14 7 14 -10 0 -14 6 -21 18 -21 15 0 18 8 18 50 0 45 -2 50
-22 50 -12 0 -25 -8 -29 -17 -6 -17 -7 -17 -16 0 -6 9 -19 17 -29 17 -17 0
-20 -7 -20 -50z"/>
<path d="M1272 538 c-7 -7 -12 -24 -12 -38 0 -14 5 -31 12 -38 7 -7 24 -12 38
-12 33 0 50 17 50 50 0 33 -17 50 -50 50 -14 0 -31 -5 -38 -12z m54 -29 c10
-17 -13 -36 -27 -22 -12 12 -4 33 11 33 5 0 12 -5 16 -11z"/>
<path d="M1374 500 c0 -42 3 -50 18 -50 10 0 18 7 18 18 1 16 1 16 11 0 20
-35 37 -21 35 30 l-1 47 -41 3 -40 3 0 -51z m56 20 c0 -5 -4 -10 -10 -10 -5 0
-10 5 -10 10 0 6 5 10 10 10 6 0 10 -4 10 -10z"/>
<path d="M1480 500 c0 -39 3 -50 16 -50 12 0 15 6 11 23 l-6 22 16 -22 c8 -13
25 -23 37 -23 20 0 22 5 22 50 0 43 -3 50 -19 50 -15 0 -18 -5 -14 -22 l6 -23
-16 23 c-8 12 -24 22 -34 22 -16 0 -19 -8 -19 -50z"/>
<path d="M1594 500 c0 -44 2 -50 21 -50 19 0 21 6 21 50 0 44 -2 50 -21 50
-19 0 -21 -6 -21 -50z"/>
<path d="M1654 500 c1 -42 4 -50 20 -50 14 0 17 5 13 23 l-6 22 16 -22 c8 -13
24 -23 34 -23 16 0 19 8 19 50 0 39 -3 50 -16 50 -12 0 -15 -6 -11 -22 l6 -23
-16 23 c-8 12 -25 22 -37 22 -20 0 -22 -5 -22 -50z"/>
<path d="M1774 536 c-3 -8 -4 -29 -2 -48 3 -30 6 -33 41 -36 35 -3 37 -2 37
27 0 22 -5 31 -16 31 -10 0 -14 -6 -10 -15 3 -9 0 -15 -9 -15 -8 0 -15 9 -15
20 0 15 7 20 25 20 16 0 25 6 25 15 0 20 -68 21 -76 1z"/>
</g>
</svg>
